<svg id="Logo" xmlns="http://www.w3.org/2000/svg" xmlns:xlink="http://www.w3.org/1999/xlink" width="94.332" height="30.422" viewBox="0 0 94.332 30.422">
  <defs>
    <clipPath id="clip-path">
      <rect id="Rectangle_3" data-name="Rectangle 3" width="94.332" height="30.422" fill="none"/>
    </clipPath>
  </defs>
  <path id="Tracé_1" data-name="Tracé 1" d="M10.645.137l-3.9,9.382H6.7L2.82.137H.118V13.272H2.426V4.3h.037l3.772,8.97h1L11,4.3h.037v8.97h2.308V.137Z" transform="translate(-0.044 -0.051)" fill="#161615"/>
  <path id="Tracé_2" data-name="Tracé 2" d="M26.668.137V13.272h8.256V11.114H29.013V7.587H34.4V5.5H29.013V2.3h5.911V.137Z" transform="translate(-9.987 -0.051)" fill="#161615"/>
  <g id="Groupe_2" data-name="Groupe 2">
    <g id="Groupe_1" data-name="Groupe 1" clip-path="url(#clip-path)">
      <path id="Tracé_3" data-name="Tracé 3" d="M51.311,13.272h2.571L51.124,8.187V8.169a3.815,3.815,0,0,0,2.834-3.922c0-2.552-1.689-4.11-4.447-4.11H44.368V13.272h2.346V8.394H48.7ZM46.714,2.3h2.533c1.576,0,2.364.657,2.364,1.952S50.8,6.236,49.247,6.236H46.714Z" transform="translate(-16.615 -0.051)" fill="#161615"/>
      <path id="Tracé_4" data-name="Tracé 4" d="M66.123,9.294l1.314-1.6h.037l3.884,5.573h2.815L68.92,5.935l4.823-5.8H70.984L66.161,5.991h-.038V.137H63.778V13.272h2.346Z" transform="translate(-23.884 -0.051)" fill="#161615"/>
      <path id="Tracé_5" data-name="Tracé 5" d="M91.744,11.115h-5.91V7.587h5.385V5.5H85.834V2.295h5.91V.138H83.488V13.273h8.256Z" transform="translate(-31.265 -0.051)" fill="#161615"/>
      <path id="Tracé_6" data-name="Tracé 6" d="M111.021.137h-2.346V9.313h-.038L103.684.137h-2.5V13.272h2.346V4.1h.038l4.954,9.176h2.5Z" transform="translate(-37.893 -0.051)" fill="#161615"/>
      <rect id="Rectangle_1" data-name="Rectangle 1" width="2.346" height="13.135" transform="translate(0 17.005)" fill="#161615"/>
      <path id="Tracé_7" data-name="Tracé 7" d="M16.637,36.362H16.6l-4.953-9.176H9.15V40.321H11.5V31.145h.037l4.954,9.176h2.5V27.186H16.637Z" transform="translate(-3.427 -10.181)" fill="#161615"/>
      <path id="Tracé_8" data-name="Tracé 8" d="M28.859,29.343h3.9V40.32h2.346V29.343h3.9V27.185H28.859Z" transform="translate(-10.807 -10.18)" fill="#161615"/>
      <path id="Tracé_9" data-name="Tracé 9" d="M49.079,40.321h8.257V38.163H51.425V34.635H56.81V32.552H51.425V29.344h5.911V27.186H49.079Z" transform="translate(-18.379 -10.18)" fill="#161615"/>
      <path id="Tracé_10" data-name="Tracé 10" d="M76.368,31.295c0-2.552-1.688-4.11-4.447-4.11H66.779V40.321h2.346V35.442h1.989l2.608,4.879h2.57l-2.758-5.085v-.019a3.815,3.815,0,0,0,2.833-3.922m-4.709,1.989H69.125V29.343h2.533c1.576,0,2.364.657,2.364,1.952s-.807,1.989-2.364,1.989" transform="translate(-25.008 -10.18)" fill="#161615"/>
      <rect id="Rectangle_2" data-name="Rectangle 2" width="2.346" height="13.135" transform="translate(53.912 17.005)" fill="#161615"/>
      <path id="Tracé_11" data-name="Tracé 11" d="M99.843,26.736c-3.434,0-5.7,2.74-5.7,6.849s2.271,6.849,5.7,6.849,5.685-2.74,5.685-6.849-2.252-6.849-5.685-6.849m0,11.54c-2.1,0-3.359-1.764-3.359-4.691,0-2.908,1.276-4.691,3.359-4.691s3.34,1.783,3.34,4.691-1.258,4.691-3.34,4.691" transform="translate(-35.253 -10.012)" fill="#161615"/>
      <path id="Tracé_12" data-name="Tracé 12" d="M126.136,31.295c0-2.552-1.688-4.11-4.447-4.11h-5.142V40.321h2.346V35.442h1.989l2.608,4.879h2.57L123.3,35.235v-.019a3.815,3.815,0,0,0,2.833-3.922m-4.709,1.989h-2.533V29.343h2.533c1.576,0,2.364.657,2.364,1.952s-.807,1.989-2.364,1.989" transform="translate(-43.646 -10.18)" fill="#161615"/>
      <path id="Tracé_13" data-name="Tracé 13" d="M140.088,32.252a9.1,9.1,0,0,1-2.122-.9,1.208,1.208,0,0,1-.562-.995c0-.9.807-1.482,2.026-1.482a2.525,2.525,0,0,1,2.608,2.2l2.289-.488a4.378,4.378,0,0,0-1.671-2.8,5.084,5.084,0,0,0-3.227-1.051c-2.552,0-4.353,1.5-4.353,3.622,0,1.914,1.07,2.927,4.2,3.978,2.364.769,3.059,1.314,3.059,2.383,0,.976-.9,1.576-2.346,1.576-1.97,0-2.909-.863-3.229-2.946l-2.307.469c.43,3,2.327,4.616,5.5,4.616,2.815,0,4.73-1.521,4.73-3.734,0-2.12-1.22-3.321-4.6-4.447" transform="translate(-50.353 -10.012)" fill="#161615"/>
      <path id="Tracé_14" data-name="Tracé 14" d="M124.015,13.125h1.27v2.085h1.277V13.125h10.684v2.085h1.277V13.125h1.27a.586.586,0,0,0,.586-.585V.586A.586.586,0,0,0,139.793,0H124.015a.586.586,0,0,0-.586.586V12.539a.586.586,0,0,0,.586.585m12.547-5.181V1.172h2.646V11.953h-2.646Zm-8.144-6.772h6.972V7.357h-6.972Zm0,7.357h6.972v3.424h-6.972ZM124.6,1.172h2.646V11.953H124.6Z" transform="translate(-46.222 0)" fill="#161615"/>
    </g>
  </g>
</svg>
